<svg width="316" height="316" viewBox="0 0 316 316" fill="none" xmlns="http://www.w3.org/2000/svg">
<rect width="316" height="316" rx="40" fill="#071F24"/>
<path fill-rule="evenodd" clip-rule="evenodd" d="M249 79C249 98.8822 232.882 115 213 115H149C139.059 115 131 123.059 131 133C131 142.941 139.059 151 149 151H177.31L183 129H219L204 187H149C119.177 187 95 162.823 95 133C95 103.177 119.177 79 149 79C149.167 79 149.334 79.0008 149.5 79.0023L149.5 79H249ZM68 237C68 217.118 84.1178 201 104 201H200L191 237H68Z" fill="#E7FF52"/>
</svg>
