<svg width="314" height="314" viewBox="0 0 314 314" fill="none" xmlns="http://www.w3.org/2000/svg">
<path fill-rule="evenodd" clip-rule="evenodd" d="M0 0H41H273H314V314H273H41H0V0ZM232.12 63H257V13H207V42.38C186.469 30.5207 162.392 26.3423 139.065 30.5904C115.739 34.8386 94.6804 47.2369 79.6483 65.5729C64.6162 83.9089 56.5883 106.99 56.997 130.696C57.4058 154.403 66.2247 177.193 81.88 195H57V295H257V245H107V215.62C127.531 227.479 151.608 231.658 174.935 227.41C198.261 223.161 219.32 210.763 234.352 192.427C249.384 174.091 257.412 151.01 257.003 127.304C256.594 103.597 247.775 80.8069 232.12 63ZM207 129C207 156.614 184.614 179 157 179C129.386 179 107 156.614 107 129C107 101.386 129.386 79 157 79C184.614 79 207 101.386 207 129Z" fill="#FFFF31"/>
</svg>
