<svg width="48" height="64" viewBox="0 0 48 64" fill="none" xmlns="http://www.w3.org/2000/svg">
<g clip-path="url(#clip0_360_285)">
<path d="M23.6432 36.484C29.2716 36.484 33.8343 31.9213 33.8343 26.2929C33.8343 20.6645 29.2716 16.1018 23.6432 16.1018C18.0149 16.1018 13.4521 20.6645 13.4521 26.2929C13.4521 31.9213 18.0149 36.484 23.6432 36.484Z" fill="#E8EFFF"/>
<path d="M0 0V64H47.2866V0H0ZM44.0255 12.8408H38.9544C42.1453 16.4702 43.9428 21.1153 44.0261 25.9473C44.1094 30.7792 42.4731 35.4835 39.4093 39.2208C36.3454 42.9581 32.0533 45.4851 27.2988 46.351C22.5444 47.2169 17.6369 46.3652 13.4522 43.948V49.9363H44.0255V60.1274H3.26115V39.7452H8.33223C5.14134 36.1158 3.34386 31.4707 3.26054 26.6387C3.17722 21.8068 4.8135 17.1024 7.87737 13.3652C10.9412 9.6279 15.2334 7.10086 19.9878 6.23499C24.7423 5.36913 29.6497 6.22077 33.8344 8.63796V2.64968H44.0255V12.8408Z" fill="#E8EFFF"/>
</g>
<defs>
<clipPath id="clip0_360_285">
<rect width="47.2866" height="64" fill="white"/>
</clipPath>
</defs>
</svg>
