<svg width="1920" height="1677" viewBox="0 0 1920 1677" fill="none" xmlns="http://www.w3.org/2000/svg">
<path d="M866.051 1.5379L866.051 1.5H1918.5C1917.69 210.887 1747.7 380.378 1538.12 380.378H859.227C752.945 380.378 666.787 466.536 666.787 572.818C666.787 679.099 752.945 765.257 859.227 765.257H1159.54H1160.7L1160.99 764.132L1221.05 531.887H1599.83L1441.49 1144.14H859.227C543.696 1144.14 287.909 888.348 287.909 572.818C287.909 257.288 543.696 1.5 859.227 1.5C860.992 1.5 862.755 1.50801 864.517 1.52399L866.051 1.5379ZM1.50289 1674.52C2.31126 1465.14 172.302 1295.64 381.878 1295.64H1398.3L1303.58 1674.52H1.50289Z" stroke="#E7FF52" stroke-width="3"/>
</svg>
